<svg xmlns="http://www.w3.org/2000/svg" viewBox="0 0 320 320" width="320" height="320">
<circle cx="160" cy="160" r="148" fill="white"/>
<filter id="gl"><feGaussianBlur stdDeviation="3"/></filter>
<circle cx="160" cy="160" r="146" fill="rgba(255,255,255,0.6)" filter="url(#gl)"/>
<ellipse cx="160" cy="218" rx="78" ry="83" fill="#8B5A2B" stroke="#222" stroke-width="3.5" />
<ellipse cx="160" cy="225" rx="50" ry="58" fill="#D4A870" stroke="#222" stroke-width="3.5" />
<circle cx="100" cy="72" r="28" fill="#8B5A2B" stroke="#222" stroke-width="3.5"/>
<circle cx="220" cy="72" r="28" fill="#8B5A2B" stroke="#222" stroke-width="3.5"/>
<circle cx="100" cy="72" r="18" fill="#C48A50" stroke="#222" stroke-width="3.5"/>
<circle cx="220" cy="72" r="18" fill="#C48A50" stroke="#222" stroke-width="3.5"/>
<circle cx="160" cy="118" r="70" fill="#8B5A2B" stroke="#222" stroke-width="3.5"/>
<ellipse cx="160" cy="138" rx="50" ry="42" fill="#D4A870" stroke="#222" stroke-width="3.5" />
<ellipse cx="160" cy="132" rx="16" ry="12" fill="#333" stroke="#222" stroke-width="3.5" />
<ellipse cx="155" cy="128" rx="4" ry="3" fill="rgba(255,255,255,0.4)" stroke="none" stroke-width="0" />
<circle cx="132" cy="110" r="11" fill="white" stroke="#222" stroke-width="3.5"/>
<circle cx="132" cy="110" r="8" fill="#111" stroke="none" stroke-width="0"/>
<circle cx="129" cy="107" r="2.5" fill="white" stroke="none" stroke-width="0"/>
<circle cx="188" cy="110" r="11" fill="white" stroke="#222" stroke-width="3.5"/>
<circle cx="188" cy="110" r="8" fill="#111" stroke="none" stroke-width="0"/>
<circle cx="185" cy="107" r="2.5" fill="white" stroke="none" stroke-width="0"/>
<path d="M140 152 Q160 162 180 152" fill="none" stroke="#333" stroke-width="2.5" stroke-linecap="round"/>
<ellipse cx="114" cy="132" rx="16" ry="9.6" fill="rgba(255,150,150,0.45)" stroke="none" stroke-width="0" />
<ellipse cx="206" cy="132" rx="16" ry="9.6" fill="rgba(255,150,150,0.45)" stroke="none" stroke-width="0" />
<circle cx="115" cy="55" r="12" fill="#FF8080" stroke="#222" stroke-width="3.5"/>
<circle cx="115" cy="55" r="5" fill="white" stroke="none" stroke-width="0"/>
<circle cx="140" cy="42" r="12" fill="#FFB060" stroke="#222" stroke-width="3.5"/>
<circle cx="140" cy="42" r="5" fill="white" stroke="none" stroke-width="0"/>
<circle cx="162" cy="38" r="12" fill="#FFE040" stroke="#222" stroke-width="3.5"/>
<circle cx="162" cy="38" r="5" fill="white" stroke="none" stroke-width="0"/>
<circle cx="184" cy="42" r="12" fill="#80CC80" stroke="#222" stroke-width="3.5"/>
<circle cx="184" cy="42" r="5" fill="white" stroke="none" stroke-width="0"/>
<circle cx="208" cy="55" r="12" fill="#8080FF" stroke="#222" stroke-width="3.5"/>
<circle cx="208" cy="55" r="5" fill="white" stroke="none" stroke-width="0"/>
<path d="M112,65 Q140,50 162,45 Q185,50 210,65" fill="none" stroke="#50A030" stroke-width="3" stroke-linecap="round"/>
<rect x="215" y="185" width="72" height="55" rx="5" fill="#F0E8D0" stroke="#222" stroke-width="3"/>
<rect x="218" y="185" width="4" height="55" rx="2" fill="#C0A870" stroke="#222" stroke-width="3"/>
<path d="M222,200 L280,200 M222,210 L275,210 M222,220 L278,220" fill="none" stroke="#888" stroke-width="1.5" stroke-linecap="round"/>

</svg>