<svg xmlns="http://www.w3.org/2000/svg" viewBox="0 0 320 320" width="320" height="320">
<circle cx="160" cy="160" r="148" fill="white"/>
<filter id="gl"><feGaussianBlur stdDeviation="3"/></filter>
<circle cx="160" cy="160" r="146" fill="rgba(255,255,255,0.6)" filter="url(#gl)"/>
<ellipse cx="160" cy="218" rx="78" ry="83" fill="#8B5A2B" stroke="#222" stroke-width="3.5" />
<ellipse cx="160" cy="225" rx="50" ry="58" fill="#D4A870" stroke="#222" stroke-width="3.5" />
<circle cx="100" cy="72" r="28" fill="#8B5A2B" stroke="#222" stroke-width="3.5"/>
<circle cx="220" cy="72" r="28" fill="#8B5A2B" stroke="#222" stroke-width="3.5"/>
<circle cx="100" cy="72" r="18" fill="#C48A50" stroke="#222" stroke-width="3.5"/>
<circle cx="220" cy="72" r="18" fill="#C48A50" stroke="#222" stroke-width="3.5"/>
<circle cx="160" cy="118" r="70" fill="#8B5A2B" stroke="#222" stroke-width="3.5"/>
<ellipse cx="160" cy="138" rx="50" ry="42" fill="#D4A870" stroke="#222" stroke-width="3.5" />
<ellipse cx="160" cy="132" rx="16" ry="12" fill="#333" stroke="#222" stroke-width="3.5" />
<ellipse cx="155" cy="128" rx="4" ry="3" fill="rgba(255,255,255,0.4)" stroke="none" stroke-width="0" />
<circle cx="132" cy="110" r="11" fill="white" stroke="#222" stroke-width="3.5"/>
<circle cx="132" cy="110" r="8" fill="#111" stroke="none" stroke-width="0"/>
<circle cx="129" cy="107" r="2.5" fill="white" stroke="none" stroke-width="0"/>
<circle cx="188" cy="110" r="11" fill="white" stroke="#222" stroke-width="3.5"/>
<circle cx="188" cy="110" r="8" fill="#111" stroke="none" stroke-width="0"/>
<circle cx="185" cy="107" r="2.5" fill="white" stroke="none" stroke-width="0"/>
<path d="M140 152 Q160 162 180 152" fill="none" stroke="#333" stroke-width="2.5" stroke-linecap="round"/>
<ellipse cx="114" cy="132" rx="16" ry="9.6" fill="rgba(255,150,150,0.45)" stroke="none" stroke-width="0" />
<ellipse cx="206" cy="132" rx="16" ry="9.6" fill="rgba(255,150,150,0.45)" stroke="none" stroke-width="0" />
<ellipse cx="132" cy="115" rx="18" ry="14" fill="none" stroke="#555" stroke-width="3" />
<ellipse cx="188" cy="115" rx="18" ry="14" fill="none" stroke="#555" stroke-width="3" />
<path d="M150,115 L170,115" fill="none" stroke="#555" stroke-width="2.5" stroke-linecap="round"/>
<path d="M114,110 L108,108" fill="none" stroke="#555" stroke-width="2.5" stroke-linecap="round"/>
<path d="M206,110 L212,108" fill="none" stroke="#555" stroke-width="2.5" stroke-linecap="round"/>
<ellipse cx="250" cy="65" rx="20" ry="22" fill="#FFF8B0" stroke="#E8C820" stroke-width="2.5" />
<ellipse cx="250" cy="88" rx="12" ry="8" fill="#DDD" stroke="#AAA" stroke-width="2" />
<path d="M244,92 L256,92" fill="none" stroke="#AAA" stroke-width="2" stroke-linecap="round"/>
<path d="M246,97 L254,97" fill="none" stroke="#AAA" stroke-width="1.5" stroke-linecap="round"/>
<circle cx="250" cy="101" r="4" fill="#F5D030" stroke="#222" stroke-width="3.5"/>

</svg>