<svg xmlns="http://www.w3.org/2000/svg" viewBox="0 0 320 320" width="320" height="320">
<circle cx="160" cy="160" r="148" fill="white"/>
<filter id="gl"><feGaussianBlur stdDeviation="3"/></filter>
<circle cx="160" cy="160" r="146" fill="rgba(255,255,255,0.6)" filter="url(#gl)"/>
<ellipse cx="160" cy="218" rx="78" ry="83" fill="#8B5A2B" stroke="#222" stroke-width="3.5" />
<ellipse cx="160" cy="225" rx="50" ry="58" fill="#D4A870" stroke="#222" stroke-width="3.5" />
<circle cx="100" cy="72" r="28" fill="#8B5A2B" stroke="#222" stroke-width="3.5"/>
<circle cx="220" cy="72" r="28" fill="#8B5A2B" stroke="#222" stroke-width="3.5"/>
<circle cx="100" cy="72" r="18" fill="#C48A50" stroke="#222" stroke-width="3.5"/>
<circle cx="220" cy="72" r="18" fill="#C48A50" stroke="#222" stroke-width="3.5"/>
<circle cx="160" cy="118" r="70" fill="#8B5A2B" stroke="#222" stroke-width="3.5"/>
<ellipse cx="160" cy="138" rx="50" ry="42" fill="#D4A870" stroke="#222" stroke-width="3.5" />
<ellipse cx="160" cy="132" rx="16" ry="12" fill="#333" stroke="#222" stroke-width="3.5" />
<ellipse cx="155" cy="128" rx="4" ry="3" fill="rgba(255,255,255,0.4)" stroke="none" stroke-width="0" />
<circle cx="132" cy="110" r="11" fill="white" stroke="#222" stroke-width="3.5"/>
<circle cx="132" cy="110" r="8" fill="#111" stroke="none" stroke-width="0"/>
<circle cx="129" cy="107" r="2.5" fill="white" stroke="none" stroke-width="0"/>
<circle cx="188" cy="110" r="11" fill="white" stroke="#222" stroke-width="3.5"/>
<circle cx="188" cy="110" r="8" fill="#111" stroke="none" stroke-width="0"/>
<circle cx="185" cy="107" r="2.5" fill="white" stroke="none" stroke-width="0"/>
<path d="M140 152 Q160 162 180 152" fill="none" stroke="#333" stroke-width="2.5" stroke-linecap="round"/>
<ellipse cx="114" cy="132" rx="16" ry="9.6" fill="rgba(255,150,150,0.45)" stroke="none" stroke-width="0" />
<ellipse cx="206" cy="132" rx="16" ry="9.6" fill="rgba(255,150,150,0.45)" stroke="none" stroke-width="0" />
<path d="M72,285 L115,175" fill="none" stroke="rgba(255,220,100,0.5)" stroke-width="18" stroke-linecap="round"/>
<circle cx="68" cy="290" r="15" fill="#FFD060" stroke="#E8A000" stroke-width="2"/>
<circle cx="248" cy="170" r="12" fill="#888" stroke="#222" stroke-width="3.5"/>
<rect x="244" y="182" width="8" height="45" rx="3" fill="#888" stroke="#222" stroke-width="3"/>
<ellipse cx="248" cy="232" rx="12" ry="8" fill="#555" stroke="#222" stroke-width="3.5" />
<rect x="240" y="240" width="16" height="8" rx="2" fill="#333" stroke="#222" stroke-width="3"/>

</svg>