<svg xmlns="http://www.w3.org/2000/svg" viewBox="0 0 320 320" width="320" height="320">
<circle cx="160" cy="160" r="148" fill="white"/>
<filter id="gl"><feGaussianBlur stdDeviation="3"/></filter>
<circle cx="160" cy="160" r="146" fill="rgba(255,255,255,0.6)" filter="url(#gl)"/>
<ellipse cx="160" cy="212" rx="70" ry="80" fill="#E8C040" stroke="#222" stroke-width="3.5" />
<ellipse cx="160" cy="220" rx="44" ry="55" fill="#FFF0B0" stroke="#222" stroke-width="3.5" />
<circle cx="130" cy="190" r="8" fill="#8A5A00" stroke="none" stroke-width="0"/>
<circle cx="185" cy="188" r="7" fill="#8A5A00" stroke="none" stroke-width="0"/>
<circle cx="148" cy="225" r="9" fill="#8A5A00" stroke="none" stroke-width="0"/>
<circle cx="175" cy="235" r="7" fill="#8A5A00" stroke="none" stroke-width="0"/>
<circle cx="120" cy="235" r="6" fill="#8A5A00" stroke="none" stroke-width="0"/>
<ellipse cx="160" cy="115" rx="67" ry="63" fill="#E8C040" stroke="#222" stroke-width="3.5" />
<ellipse cx="160" cy="130" rx="50" ry="44" fill="#FFF0B0" stroke="#222" stroke-width="3.5" />
<path d="M143,120 Q138,130 135,140" fill="none" stroke="#333" stroke-width="2.5" stroke-linecap="round"/>
<path d="M177,120 Q182,130 185,140" fill="none" stroke="#333" stroke-width="2.5" stroke-linecap="round"/>
<circle cx="133" cy="110" r="10" fill="white" stroke="#222" stroke-width="3.5"/>
<circle cx="133" cy="110" r="7" fill="#111" stroke="none" stroke-width="0"/>
<circle cx="130" cy="107" r="2.5" fill="white" stroke="none" stroke-width="0"/>
<circle cx="187" cy="110" r="10" fill="white" stroke="#222" stroke-width="3.5"/>
<circle cx="187" cy="110" r="7" fill="#111" stroke="none" stroke-width="0"/>
<circle cx="184" cy="107" r="2.5" fill="white" stroke="none" stroke-width="0"/>
<ellipse cx="160" cy="132" rx="10" ry="7" fill="#E06060" stroke="#c05050" stroke-width="1.5" />
<path d="M142 148 Q160 156 178 148" fill="none" stroke="#333" stroke-width="2.5" stroke-linecap="round"/>
<ellipse cx="115" cy="128" rx="14" ry="8.4" fill="rgba(255,150,150,0.45)" stroke="none" stroke-width="0" />
<ellipse cx="205" cy="128" rx="14" ry="8.4" fill="rgba(255,150,150,0.45)" stroke="none" stroke-width="0" />
<circle cx="110" cy="105" r="5" fill="#8A5A00" stroke="none" stroke-width="0"/>
<circle cx="210" cy="105" r="5" fill="#8A5A00" stroke="none" stroke-width="0"/>
<circle cx="115" cy="125" r="4" fill="#8A5A00" stroke="none" stroke-width="0"/>
<circle cx="205" cy="125" r="4" fill="#8A5A00" stroke="none" stroke-width="0"/>
<rect x="200" y="160" width="82" height="105" rx="5" fill="#F8F0E0" stroke="#AAA" stroke-width="2"/>
<rect x="230" y="152" width="22" height="18" rx="4" fill="#CCC" stroke="#AAA" stroke-width="2"/>
<path d="M205,178 L275,178 M205,192 L275,192 M205,206 L265,206 M205,220 L270,220 M205,234 L260,234" fill="none" stroke="#888" stroke-width="2" stroke-linecap="round"/>
<rect x="205" y="165" width="18" height="12" rx="2" fill="#FF6060" stroke="none" stroke-width="0"/>
<text x="214" y="173" font-size="10" font-weight="bold" fill="white" text-anchor="middle" font-family="sans-serif">✓</text>

</svg>