<svg xmlns="http://www.w3.org/2000/svg" viewBox="0 0 320 320" width="320" height="320">
<circle cx="160" cy="160" r="148" fill="white"/>
<filter id="gl"><feGaussianBlur stdDeviation="3"/></filter>
<circle cx="160" cy="160" r="146" fill="rgba(255,255,255,0.6)" filter="url(#gl)"/>
<ellipse cx="160" cy="215" rx="70" ry="82" fill="#1A1A2A" stroke="#222" stroke-width="3.5" />
<ellipse cx="160" cy="222" rx="43" ry="55" fill="#2A2A3A" stroke="#222" stroke-width="3.5" />
<circle cx="135" cy="185" r="7" fill="#2E2E42" stroke="none" stroke-width="0"/>
<circle cx="185" cy="192" r="7" fill="#2E2E42" stroke="none" stroke-width="0"/>
<circle cx="145" cy="225" r="7" fill="#2E2E42" stroke="none" stroke-width="0"/>
<circle cx="175" cy="230" r="7" fill="#2E2E42" stroke="none" stroke-width="0"/>
<ellipse cx="160" cy="116" rx="68" ry="66" fill="#1A1A2A" stroke="#222" stroke-width="3.5" />
<polygon points="108,78 88,35 132,72" fill="#1A1A2A" stroke="#222" stroke-width="3"/>
<polygon points="212,78 232,35 188,72" fill="#1A1A2A" stroke="#222" stroke-width="3"/>
<polygon points="110,73 95,45 130,68" fill="#5A3A5A" stroke="#222" stroke-width="3"/>
<polygon points="210,73 225,45 190,68" fill="#5A3A5A" stroke="#222" stroke-width="3"/>
<ellipse cx="160" cy="130" rx="50" ry="46" fill="#2A2A3A" stroke="#222" stroke-width="3.5" />
<circle cx="132" cy="112" r="11" fill="white" stroke="#222" stroke-width="3.5"/>
<circle cx="132" cy="112" r="8" fill="#111" stroke="none" stroke-width="0"/>
<circle cx="129" cy="109" r="2.5" fill="white" stroke="none" stroke-width="0"/>
<circle cx="188" cy="112" r="11" fill="white" stroke="#222" stroke-width="3.5"/>
<circle cx="188" cy="112" r="8" fill="#111" stroke="none" stroke-width="0"/>
<circle cx="185" cy="109" r="2.5" fill="white" stroke="none" stroke-width="0"/>
<circle cx="132" cy="112" r="7" fill="#FFD700" stroke="none" stroke-width="0"/>
<circle cx="188" cy="112" r="7" fill="#FFD700" stroke="none" stroke-width="0"/>
<circle cx="132" cy="112" r="4" fill="#111" stroke="none" stroke-width="0"/>
<circle cx="188" cy="112" r="4" fill="#111" stroke="none" stroke-width="0"/>
<circle cx="130" cy="110" r="2" fill="white" stroke="none" stroke-width="0"/>
<circle cx="186" cy="110" r="2" fill="white" stroke="none" stroke-width="0"/>
<ellipse cx="160" cy="135" rx="10" ry="7" fill="#444" stroke="#c05050" stroke-width="1.5" />
<path d="M142 150 Q160 158 178 150" fill="none" stroke="#333" stroke-width="2.5" stroke-linecap="round"/>
<ellipse cx="115" cy="132" rx="14" ry="8.4" fill="rgba(100,50,150,0.3)" stroke="none" stroke-width="0" />
<ellipse cx="205" cy="132" rx="14" ry="8.4" fill="rgba(100,50,150,0.3)" stroke="none" stroke-width="0" />
<ellipse cx="132" cy="110" rx="18" ry="12" fill="#88AACC" stroke="#558899" stroke-width="3" />
<ellipse cx="188" cy="110" rx="18" ry="12" fill="#88AACC" stroke="#558899" stroke-width="3" />
<rect x="149" y="108" width="22" height="8" rx="4" fill="#558899" stroke="#222" stroke-width="3"/>
<rect x="106" y="106" width="26" height="8" rx="4" fill="#777" stroke="#222" stroke-width="3"/>
<rect x="204" y="106" width="26" height="8" rx="4" fill="#777" stroke="#222" stroke-width="3"/>
<ellipse cx="132" cy="110" rx="10" ry="7" fill="rgba(200,230,255,0.5)" stroke="none" stroke-width="0" />
<ellipse cx="188" cy="110" rx="10" ry="7" fill="rgba(200,230,255,0.5)" stroke="none" stroke-width="0" />
<path d="M225,195 Q240,180 255,195 L255,220 Q255,235 240,235 Q225,235 225,220 Z" fill="#888" stroke="#555" stroke-width="2.5" stroke-linecap="round"/>
<circle cx="240" cy="195" r="8" fill="#888" stroke="#555" stroke-width="2"/>
<path d="M248,215 L268,235" fill="none" stroke="#666" stroke-width="6" stroke-linecap="round"/>
<path d="M262,232 Q270,228 272,236 Q268,244 260,240" fill="#777" stroke="#555" stroke-width="2" stroke-linecap="round"/>

</svg>