<svg xmlns="http://www.w3.org/2000/svg" viewBox="0 0 320 320" width="320" height="320">
<circle cx="160" cy="160" r="148" fill="white"/>
<filter id="gl"><feGaussianBlur stdDeviation="3"/></filter>
<circle cx="160" cy="160" r="146" fill="rgba(255,255,255,0.6)" filter="url(#gl)"/>
<ellipse cx="160" cy="215" rx="70" ry="82" fill="#1A1A2A" stroke="#222" stroke-width="3.5" />
<ellipse cx="160" cy="222" rx="43" ry="55" fill="#2A2A3A" stroke="#222" stroke-width="3.5" />
<circle cx="135" cy="185" r="7" fill="#2E2E42" stroke="none" stroke-width="0"/>
<circle cx="185" cy="192" r="7" fill="#2E2E42" stroke="none" stroke-width="0"/>
<circle cx="145" cy="225" r="7" fill="#2E2E42" stroke="none" stroke-width="0"/>
<circle cx="175" cy="230" r="7" fill="#2E2E42" stroke="none" stroke-width="0"/>
<ellipse cx="160" cy="116" rx="68" ry="66" fill="#1A1A2A" stroke="#222" stroke-width="3.5" />
<polygon points="108,78 88,35 132,72" fill="#1A1A2A" stroke="#222" stroke-width="3"/>
<polygon points="212,78 232,35 188,72" fill="#1A1A2A" stroke="#222" stroke-width="3"/>
<polygon points="110,73 95,45 130,68" fill="#5A3A5A" stroke="#222" stroke-width="3"/>
<polygon points="210,73 225,45 190,68" fill="#5A3A5A" stroke="#222" stroke-width="3"/>
<ellipse cx="160" cy="130" rx="50" ry="46" fill="#2A2A3A" stroke="#222" stroke-width="3.5" />
<circle cx="132" cy="112" r="11" fill="white" stroke="#222" stroke-width="3.5"/>
<circle cx="132" cy="112" r="8" fill="#111" stroke="none" stroke-width="0"/>
<circle cx="129" cy="109" r="2.5" fill="white" stroke="none" stroke-width="0"/>
<circle cx="188" cy="112" r="11" fill="white" stroke="#222" stroke-width="3.5"/>
<circle cx="188" cy="112" r="8" fill="#111" stroke="none" stroke-width="0"/>
<circle cx="185" cy="109" r="2.5" fill="white" stroke="none" stroke-width="0"/>
<circle cx="132" cy="112" r="7" fill="#FFD700" stroke="none" stroke-width="0"/>
<circle cx="188" cy="112" r="7" fill="#FFD700" stroke="none" stroke-width="0"/>
<circle cx="132" cy="112" r="4" fill="#111" stroke="none" stroke-width="0"/>
<circle cx="188" cy="112" r="4" fill="#111" stroke="none" stroke-width="0"/>
<circle cx="130" cy="110" r="2" fill="white" stroke="none" stroke-width="0"/>
<circle cx="186" cy="110" r="2" fill="white" stroke="none" stroke-width="0"/>
<ellipse cx="160" cy="135" rx="10" ry="7" fill="#444" stroke="#c05050" stroke-width="1.5" />
<path d="M142 150 Q160 158 178 150" fill="none" stroke="#333" stroke-width="2.5" stroke-linecap="round"/>
<ellipse cx="115" cy="132" rx="14" ry="8.4" fill="rgba(100,50,150,0.3)" stroke="none" stroke-width="0" />
<ellipse cx="205" cy="132" rx="14" ry="8.4" fill="rgba(100,50,150,0.3)" stroke="none" stroke-width="0" />
<circle cx="257" cy="180" r="10" fill="#FF6060" stroke="#222" stroke-width="3.5"/>
<circle cx="263" cy="189" r="10" fill="#FF9030" stroke="#222" stroke-width="3.5"/>
<circle cx="265" cy="200" r="10" fill="#FFD700" stroke="#222" stroke-width="3.5"/>
<circle cx="263" cy="210" r="10" fill="#60CC60" stroke="#222" stroke-width="3.5"/>
<circle cx="257" cy="219" r="10" fill="#6090FF" stroke="#222" stroke-width="3.5"/>
<path d="M235,230 Q230,260 225,280" fill="none" stroke="#40A030" stroke-width="4" stroke-linecap="round"/>
<ellipse cx="90" cy="65" rx="20" ry="16" fill="#FF80A0" stroke="#FF4080" stroke-width="2.5" />
<path d="M78,58 Q90,48 102,58 L98,72 Q90,68 82,72 Z" fill="#FF4080" stroke="#222" stroke-width="3" stroke-linecap="round"/>

</svg>