<svg xmlns="http://www.w3.org/2000/svg" viewBox="0 0 320 320" width="320" height="320">
<circle cx="160" cy="160" r="148" fill="white"/>
<filter id="gl"><feGaussianBlur stdDeviation="3"/></filter>
<circle cx="160" cy="160" r="146" fill="rgba(255,255,255,0.6)" filter="url(#gl)"/>
<circle cx="160" cy="220" r="65" fill="#F0EEE0" stroke="#222" stroke-width="3.5"/>
<circle cx="115" cy="215" r="45" fill="#F0EEE0" stroke="#222" stroke-width="3.5"/>
<circle cx="205" cy="215" r="45" fill="#F0EEE0" stroke="#222" stroke-width="3.5"/>
<circle cx="140" cy="175" r="40" fill="#F0EEE0" stroke="#222" stroke-width="3.5"/>
<circle cx="180" cy="175" r="40" fill="#F0EEE0" stroke="#222" stroke-width="3.5"/>
<circle cx="160" cy="160" r="42" fill="#F0EEE0" stroke="#222" stroke-width="3.5"/>
<ellipse cx="160" cy="210" rx="72" ry="75" fill="#F0EEE0" stroke="#222" stroke-width="3.5" />
<ellipse cx="160" cy="125" rx="45" ry="52" fill="#E8D8C0" stroke="#222" stroke-width="3.5" />
<circle cx="108" cy="95" r="22" fill="#F0EEE0" stroke="#222" stroke-width="3.5"/>
<circle cx="212" cy="95" r="22" fill="#F0EEE0" stroke="#222" stroke-width="3.5"/>
<circle cx="108" cy="95" r="14" fill="#F0C0C0" stroke="#222" stroke-width="3.5"/>
<circle cx="212" cy="95" r="14" fill="#F0C0C0" stroke="#222" stroke-width="3.5"/>
<circle cx="140" cy="115" r="10" fill="white" stroke="#222" stroke-width="3.5"/>
<circle cx="140" cy="115" r="7" fill="#111" stroke="none" stroke-width="0"/>
<circle cx="137" cy="112" r="2.5" fill="white" stroke="none" stroke-width="0"/>
<circle cx="180" cy="115" r="10" fill="white" stroke="#222" stroke-width="3.5"/>
<circle cx="180" cy="115" r="7" fill="#111" stroke="none" stroke-width="0"/>
<circle cx="177" cy="112" r="2.5" fill="white" stroke="none" stroke-width="0"/>
<ellipse cx="160" cy="130" rx="9" ry="7" fill="#E09090" stroke="#c05050" stroke-width="1.5" />
<path d="M144 143 Q160 151 176 143" fill="none" stroke="#333" stroke-width="2.5" stroke-linecap="round"/>
<ellipse cx="125" cy="128" rx="14" ry="8.4" fill="rgba(255,150,150,0.45)" stroke="none" stroke-width="0" />
<ellipse cx="195" cy="128" rx="14" ry="8.4" fill="rgba(255,150,150,0.45)" stroke="none" stroke-width="0" />
<path d="M115,155 L100,295 L130,295 L145,220 L160,295 L175,220 L190,295 L220,295 L205,155" fill="#2A2A5A" stroke="#1A1A3A" stroke-width="2" stroke-linecap="round"/>
<path d="M130,155 L160,185 L190,155" fill="#3A3A6A" stroke="#1A1A3A" stroke-width="2" stroke-linecap="round"/>
<rect x="215" y="195" width="70" height="55" rx="6" fill="#8B6020" stroke="#6A4010" stroke-width="2.5"/>
<rect x="215" y="195" width="70" height="12" rx="3" fill="#6A4010" stroke="#222" stroke-width="3"/>
<rect x="245" y="188" width="10" height="16" rx="3" fill="#6A4010" stroke="#222" stroke-width="3"/>
<path d="M215,222 L285,222" fill="none" stroke="#6A4010" stroke-width="1.5" stroke-linecap="round"/>

</svg>